# xmcd CD database file
#
# Track frame offsets:
#	150
#	12287
#	23062
#	32600
#	44452
#	54150
#	63535
#	77000
#	89682
#	102902
#	114442
#	123630
#	133972
#	144452
#	155660
#	166770
#
# Disc length: 2386 seconds
#
# Revision: 1
# Processed by: cddbd v1.5.2PL0 Copyright (c) Steve Scherf et al.
# Submitted via: CDex 1.51
#
DISCID=d4095010
DTITLE=Fausto Papetti - Golden Age
DYEAR=1993
DGENRE=Easy Listening
TTITLE0=Theme from A Summer Place (Max Steiner)
TTITLE1=Legata A Un Granello Di Sabia (Fidenco - Marchetti)
TTITLE2=Caravan (D. Ellington - J. Tizol - I. Mills)
TTITLE3=Nessuno Al Mondo (Krafer Art - Neeb Jimmy)
TTITLE4=Words (Brtini - Singlenton - Cavanaugh)
TTITLE5=Temptation (Herb - Brown - Freed)
TTITLE6=Mare Incantato (Metis - Star)
TTITLE7=Flamingo (Anderson - Grouya)
TTITLE8=Stardust (Hoagy Carmichael)
TTITLE9=Estate Violenta (Pazzaglia - Nascimbene)
TTITLE10=Ebb Tide (Robert Maxwell - Carls Sigman)
TTITLE11=Perfidia (Alberto Diminguez)
TTITLE12=Et Maintenant (Paul Delanoe - Gilbert Becaud)
TTITLE13=Amado Mio (De Ville - Roberts - Fisher)
TTITLE14=Il Faut Savoir (Charles Asnavour)
TTITLE15=Tabu (Ernesto Lecuona)
EXTD=YEAR: 1993
EXTT0=
EXTT1=
EXTT2=
EXTT3=
EXTT4=
EXTT5=
EXTT6=
EXTT7=
EXTT8=
EXTT9=
EXTT10=
EXTT11=
EXTT12=
EXTT13=
EXTT14=
EXTT15=
PLAYORDER=
